<?xml version="1.0" encoding="UTF-8"?>
<!DOCTYPE svg PUBLIC "-//W3C//DTD SVG 1.1//EN" "http://www.w3.org/Graphics/SVG/1.1/DTD/svg11.dtd">
<!-- Creator: CorelDRAW 2020 (64-Bit) -->
<svg xmlns="http://www.w3.org/2000/svg" xml:space="preserve" width="187.026mm" height="189.562mm" version="1.1" style="shape-rendering:geometricPrecision; text-rendering:geometricPrecision; image-rendering:optimizeQuality; fill-rule:evenodd; clip-rule:evenodd"
viewBox="0 0 1198.31 1214.56"
 xmlns:xlink="http://www.w3.org/1999/xlink"
 xmlns:xodm="http://www.for.work">
 <defs>
  <style type="text/css">
   <![CDATA[
    .fil0 {fill:#5BA997;fill-rule:nonzero}
   ]]>
  </style>
 </defs>
 <g id="图层_x0020_1">
  <metadata id="CorelCorpID_0Corel-Layer"/>
  <g id="黑色.pdf">
   <path class="fil0" d="M1119.32 496.83c2.07,-6.37 3.92,-12.8 5.57,-19.29 1.64,-6.49 3.08,-13.03 4.29,-19.61 1.22,-6.58 2.22,-13.2 3,-19.85 0.78,-6.65 1.35,-13.32 1.7,-20.01 0.35,-6.69 0.48,-13.38 0.39,-20.07 -0.09,-6.7 -0.4,-13.38 -0.93,-20.06 -0.53,-6.68 -1.27,-13.33 -2.24,-19.95 -0.96,-6.63 -2.14,-13.21 -3.53,-19.76 -1.39,-6.55 -3,-13.05 -4.82,-19.49 -1.82,-6.44 -3.85,-12.82 -6.08,-19.14 -2.24,-6.31 -4.68,-12.54 -7.32,-18.7 -2.64,-6.15 -5.49,-12.21 -8.53,-18.18 -3.04,-5.97 -6.27,-11.83 -9.7,-17.58 -3.42,-5.75 -7.03,-11.39 -10.82,-16.91 -3.79,-5.52 -7.76,-10.91 -11.91,-16.17 -4.15,-5.26 -8.46,-10.38 -12.94,-15.35 -4.48,-4.98 -9.12,-9.8 -13.91,-14.48 -4.8,-4.67 -9.74,-9.19 -14.83,-13.54 -5.09,-4.35 -10.32,-8.53 -15.68,-12.54 -5.36,-4.01 -10.85,-7.84 -16.47,-11.49 -5.61,-3.65 -11.34,-7.11 -17.18,-10.39 -5.84,-3.27 -11.78,-6.35 -17.83,-9.24 -6.04,-2.89 -12.17,-5.57 -18.39,-8.06 -6.22,-2.48 -12.51,-4.76 -18.88,-6.84 -6.37,-2.07 -12.8,-3.94 -19.29,-5.59 -6.49,-1.65 -13.03,-3.09 -19.61,-4.32 -6.58,-1.23 -13.2,-2.23 -19.85,-3.02 -6.65,-0.79 -13.32,-1.37 -20,-1.72 -6.69,-0.36 -13.38,-0.49 -20.07,-0.41 -6.7,0.08 -13.38,0.38 -20.06,0.9 -6.68,0.52 -13.33,1.26 -19.96,2.21 -6.63,0.95 -13.22,2.12 -19.77,3.51 -4.47,-4.99 -9.11,-9.82 -13.9,-14.51 -4.79,-4.68 -9.73,-9.21 -14.82,-13.57 -5.09,-4.36 -10.31,-8.55 -15.67,-12.57 -5.36,-4.02 -10.85,-7.86 -16.46,-11.51 -5.61,-3.66 -11.34,-7.13 -17.18,-10.41 -5.84,-3.28 -11.78,-6.37 -17.82,-9.26 -6.04,-2.89 -12.17,-5.59 -18.39,-8.08 -6.22,-2.49 -12.51,-4.78 -18.88,-6.86 -6.37,-2.08 -12.8,-3.95 -19.29,-5.61 -6.49,-1.66 -13.03,-3.1 -19.62,-4.33 -6.59,-1.23 -13.21,-2.24 -19.86,-3.04 -6.65,-0.8 -13.32,-1.37 -20.01,-1.73 -1.91,-0.1 -3.83,-0.19 -5.74,-0.25l-21.31 0c-4.37,0.15 -8.74,0.4 -13.11,0.74 -6.68,0.52 -13.34,1.26 -19.97,2.21 -6.63,0.96 -13.22,2.13 -19.78,3.51 -6.55,1.39 -13.06,2.99 -19.51,4.8 -6.45,1.81 -12.83,3.84 -19.15,6.07 -6.32,2.23 -12.55,4.67 -18.71,7.31 -6.16,2.64 -12.22,5.48 -18.19,8.52 -5.97,3.04 -11.84,6.27 -17.6,9.69 -5.76,3.42 -11.4,7.03 -16.92,10.82 -5.52,3.79 -10.92,7.76 -16.18,11.91 -5.26,4.15 -10.38,8.46 -15.37,12.94 -4.98,4.48 -9.81,9.12 -14.48,13.92 -4.68,4.8 -9.19,9.74 -13.54,14.84 -4.35,5.09 -8.53,10.32 -12.54,15.69 -4.01,5.37 -7.84,10.86 -11.49,16.48 -3.65,5.62 -7.11,11.35 -10.38,17.2 -3.27,5.85 -6.35,11.79 -9.24,17.84 -2.88,6.05 -5.57,12.18 -8.05,18.41 -2.48,6.22 -4.76,12.52 -6.83,18.89 -6.56,1.38 -13.07,2.97 -19.53,4.77 -6.46,1.8 -12.85,3.82 -19.17,6.04 -6.33,2.22 -12.57,4.65 -18.74,7.28 -6.17,2.63 -12.24,5.46 -18.22,8.5 -5.98,3.03 -11.85,6.25 -17.62,9.67 -5.77,3.42 -11.42,7.02 -16.95,10.8 -5.53,3.79 -10.94,7.75 -16.21,11.89 -5.27,4.14 -10.4,8.45 -15.39,12.93 -4.99,4.48 -9.83,9.11 -14.51,13.91 -4.69,4.8 -9.21,9.74 -13.57,14.83 -4.36,5.09 -8.55,10.32 -12.57,15.69 -4.02,5.37 -7.86,10.86 -11.52,16.48 -3.66,5.62 -7.13,11.35 -10.41,17.2 -3.28,5.85 -6.37,11.79 -9.26,17.84 -2.89,6.05 -5.58,12.19 -8.07,18.41 -2.49,6.22 -4.77,12.52 -6.85,18.9 -2.08,6.37 -3.94,12.81 -5.6,19.31 -1.65,6.5 -3.1,13.04 -4.32,19.63 -1.23,6.59 -2.23,13.22 -3.03,19.87 -0.79,6.66 -1.36,13.33 -1.72,20.03 -0.35,6.69 -0.49,13.39 -0.4,20.1 0.09,6.7 0.39,13.4 0.92,20.08 0.52,6.68 1.27,13.34 2.23,19.98 0.96,6.64 2.14,13.23 3.53,19.79 1.39,6.56 3,13.06 4.82,19.52 1.82,6.45 3.85,12.84 6.09,19.16 2.24,6.32 4.68,12.56 7.33,18.72 2.65,6.16 5.5,12.22 8.54,18.2 3.05,5.97 6.29,11.84 9.72,17.6 3.43,5.76 7.05,11.4 10.85,16.92 3.8,5.52 7.78,10.91 11.93,16.18 4.16,5.26 8.48,10.38 12.97,15.36 -3.36,10.21 -6.17,20.57 -8.43,31.07 -2.26,10.51 -3.96,21.1 -5.09,31.79 -1.13,10.69 -1.7,21.4 -1.69,32.15 0,10.75 0.58,21.46 1.72,32.15 1.14,10.69 2.85,21.28 5.11,31.79 2.27,10.51 5.08,20.86 8.45,31.07 3.37,10.21 7.26,20.2 11.69,30 4.43,9.79 9.36,19.32 14.8,28.59 4.02,6.97 8.3,13.78 12.85,20.41 4.55,6.64 9.36,13.08 14.41,19.34 5.06,6.26 10.35,12.31 15.89,18.15 5.53,5.84 11.29,11.46 17.27,16.84 5.98,5.39 12.16,10.53 18.54,15.43 6.38,4.9 12.95,9.55 19.69,13.93 6.75,4.38 13.66,8.5 20.73,12.34 7.07,3.84 14.28,7.4 21.63,10.67 7.35,3.27 14.82,6.25 22.4,8.94 7.59,2.69 15.26,5.07 23.04,7.15 7.77,2.08 15.62,3.85 23.53,5.32 7.91,1.46 15.87,2.61 23.87,3.45 8,0.84 16.03,1.36 24.07,1.57 8.04,0.21 16.08,0.1 24.12,-0.33 8.04,-0.43 16.04,-1.17 24.02,-2.23 7.98,-1.06 15.9,-2.43 23.77,-4.11 7.13,8.01 14.66,15.61 22.59,22.82 7.93,7.21 16.23,13.98 24.88,20.31 8.65,6.33 17.61,12.19 26.88,17.57 9.27,5.38 18.8,10.26 28.59,14.63 9.79,4.37 19.78,8.21 29.97,11.53 10.19,3.31 20.54,6.08 31.02,8.3 10.49,2.22 21.06,3.88 31.72,4.98 10,1.03 20.02,1.56 30.06,1.6l2.01 0 0.38 0c7.93,-0.01 15.85,-0.33 23.76,-0.95 8.03,-0.63 16.03,-1.58 23.99,-2.85 7.96,-1.26 15.86,-2.84 23.69,-4.72 7.84,-1.89 15.58,-4.08 23.25,-6.57 7.66,-2.5 15.22,-5.29 22.66,-8.38 7.44,-3.09 14.75,-6.47 21.93,-10.13 7.18,-3.67 14.2,-7.61 21.07,-11.83 6.87,-4.22 13.56,-8.7 20.07,-13.45 6.51,-4.75 12.83,-9.74 18.95,-14.98 6.12,-5.24 12.03,-10.72 17.71,-16.43 5.69,-5.71 11.15,-11.63 16.37,-17.77 5.22,-6.14 10.2,-12.47 14.92,-19 4.72,-6.53 9.18,-13.23 13.38,-20.11 4.2,-6.88 8.12,-13.92 11.76,-21.1 3.64,-7.19 7,-14.51 10.06,-21.96 3.07,-7.45 5.83,-15.02 8.31,-22.69 10.52,-2.16 20.89,-4.88 31.11,-8.14 10.23,-3.26 20.25,-7.06 30.08,-11.39 9.83,-4.33 19.39,-9.16 28.71,-14.5 9.31,-5.34 18.32,-11.16 27.01,-17.46 8.7,-6.3 17.03,-13.04 25.01,-20.22 7.98,-7.18 15.56,-14.77 22.73,-22.75 7.18,-7.99 13.91,-16.33 20.2,-25.03 6.29,-8.7 12.1,-17.71 17.44,-27.02 3.99,-6.96 7.7,-14.07 11.14,-21.33 3.43,-7.26 6.58,-14.63 9.43,-22.14 2.86,-7.5 5.41,-15.1 7.67,-22.81 2.26,-7.7 4.21,-15.48 5.86,-23.34 1.65,-7.86 2.99,-15.76 4.02,-23.72 1.03,-7.96 1.74,-15.95 2.15,-23.97 0.4,-8.02 0.49,-16.04 0.26,-24.06 -0.23,-8.02 -0.77,-16.03 -1.62,-24.01 -0.85,-7.98 -2.02,-15.92 -3.5,-23.81 -1.48,-7.89 -3.26,-15.71 -5.35,-23.46 -2.09,-7.75 -4.48,-15.41 -7.17,-22.97 -2.69,-7.56 -5.67,-15.01 -8.95,-22.34 -3.27,-7.33 -6.83,-14.52 -10.67,-21.57 -3.84,-7.05 -7.95,-13.94 -12.32,-20.67 -4.38,-6.73 -9.01,-13.27 -13.9,-19.64 -4.89,-6.36 -10.02,-12.53 -15.4,-18.49zm-455.46 638.4c-13.21,-0 -26.33,-1.14 -39.34,-3.43 -13.01,-2.28 -25.73,-5.67 -38.16,-10.17 -12.42,-4.5 -24.37,-10.03 -35.83,-16.61 -11.46,-6.58 -22.27,-14.09 -32.42,-22.55l7.21 -4.17 241.77 -139.67c3.12,-1.66 5.95,-3.71 8.49,-6.16 2.54,-2.45 4.7,-5.2 6.48,-8.25 1.78,-3.05 3.1,-6.29 3.98,-9.71 0.87,-3.42 1.26,-6.9 1.17,-10.43l0 -341.6 102.1 59.21c0.55,0.22 0.99,0.57 1.34,1.05 0.34,0.48 0.53,1.02 0.56,1.61l0 282.39c0.01,3.74 -0.07,7.48 -0.24,11.22 -0.17,3.74 -0.44,7.47 -0.79,11.2 -0.36,3.73 -0.8,7.44 -1.34,11.14 -0.54,3.7 -1.17,7.39 -1.89,11.06 -0.72,3.67 -1.53,7.33 -2.43,10.96 -0.9,3.63 -1.89,7.24 -2.97,10.82 -1.08,3.58 -2.25,7.14 -3.5,10.67 -1.25,3.53 -2.59,7.02 -4.02,10.48 -1.43,3.46 -2.94,6.88 -4.53,10.27 -1.6,3.39 -3.27,6.73 -5.03,10.03 -1.76,3.3 -3.6,6.56 -5.52,9.77 -1.92,3.21 -3.92,6.38 -6,9.49 -2.08,3.11 -4.23,6.17 -6.46,9.18 -2.23,3.01 -4.53,5.96 -6.9,8.85 -2.37,2.89 -4.82,5.73 -7.33,8.5 -2.51,2.77 -5.09,5.48 -7.74,8.13 -2.65,2.65 -5.36,5.23 -8.13,7.74 -2.77,2.51 -5.61,4.96 -8.5,7.33 -2.89,2.37 -5.85,4.67 -8.85,6.9 -3.01,2.23 -6.07,4.38 -9.18,6.46 -3.11,2.08 -6.28,4.08 -9.49,6 -3.21,1.92 -6.47,3.76 -9.77,5.52 -3.3,1.76 -6.65,3.44 -10.03,5.03 -3.39,1.59 -6.81,3.11 -10.27,4.53 -3.46,1.43 -6.95,2.77 -10.48,4.02 -3.53,1.25 -7.08,2.42 -10.67,3.5 -3.58,1.08 -7.19,2.07 -10.83,2.97 -3.63,0.9 -7.28,1.71 -10.96,2.43 -3.67,0.72 -7.36,1.35 -11.07,1.89 -3.7,0.54 -7.42,0.99 -11.14,1.34 -3.73,0.36 -7.46,0.62 -11.2,0.79 -3.74,0.17 -7.48,0.25 -11.22,0.24l1.14 0zm-490 -208.75c-6.54,-11.4 -12.06,-23.27 -16.54,-35.62 -4.49,-12.35 -7.88,-25 -10.17,-37.94 -2.3,-12.94 -3.47,-25.98 -3.5,-39.12 -0.04,-13.14 1.05,-26.19 3.27,-39.14l7.21 4.17 241.77 139.67c2.89,1.67 5.94,2.93 9.15,3.79 3.22,0.86 6.49,1.29 9.82,1.29 3.33,0 6.61,-0.43 9.82,-1.29 3.22,-0.86 6.27,-2.13 9.15,-3.79l295.67 -170.42 0 117.28c0.5,1.01 0.5,2.02 0,3.04l-244.43 141.19c-3.23,1.87 -6.5,3.66 -9.81,5.36 -3.31,1.71 -6.67,3.33 -10.06,4.87 -3.39,1.54 -6.82,3 -10.29,4.37 -3.47,1.37 -6.96,2.66 -10.49,3.86 -3.53,1.2 -7.09,2.32 -10.67,3.34 -3.58,1.03 -7.19,1.97 -10.82,2.82 -3.63,0.85 -7.28,1.61 -10.95,2.28 -3.67,0.67 -7.35,1.25 -11.04,1.74 -3.7,0.49 -7.4,0.89 -11.12,1.2 -3.72,0.31 -7.44,0.52 -11.16,0.65 -3.73,0.13 -7.45,0.16 -11.18,0.1 -3.73,-0.06 -7.45,-0.21 -11.17,-0.45 -3.72,-0.24 -7.43,-0.57 -11.14,-1 -3.7,-0.42 -7.4,-0.94 -11.07,-1.54 -3.68,-0.6 -7.34,-1.3 -10.99,-2.08 -3.65,-0.78 -7.27,-1.66 -10.87,-2.62 -3.6,-0.96 -7.18,-2.01 -10.73,-3.15 -3.55,-1.14 -7.07,-2.36 -10.56,-3.67 -3.49,-1.31 -6.95,-2.71 -10.37,-4.19 -3.42,-1.48 -6.81,-3.04 -10.15,-4.69 -3.35,-1.65 -6.65,-3.37 -9.91,-5.18 -3.26,-1.81 -6.47,-3.7 -9.64,-5.66 -3.17,-1.97 -6.28,-4.01 -9.35,-6.13 -3.07,-2.12 -6.08,-4.31 -9.04,-6.58 -2.96,-2.27 -5.86,-4.61 -8.71,-7.02 -2.84,-2.41 -5.63,-4.89 -8.35,-7.44 -2.72,-2.55 -5.38,-5.16 -7.98,-7.84 -2.59,-2.68 -5.12,-5.42 -7.58,-8.22 -2.46,-2.8 -4.85,-5.66 -7.17,-8.58 -2.32,-2.92 -4.57,-5.89 -6.74,-8.92 -2.17,-3.03 -4.27,-6.11 -6.29,-9.24 -2.02,-3.13 -3.97,-6.31 -5.83,-9.54zm-63.76 -526.82c6.69,-11.5 14.33,-22.33 22.92,-32.49 8.59,-10.16 18,-19.5 28.23,-28.01 10.23,-8.51 21.12,-16.07 32.67,-22.67 11.55,-6.6 23.59,-12.15 36.12,-16.64l0 287.32c-0.1,3.46 0.27,6.87 1.11,10.22 0.83,3.36 2.11,6.54 3.81,9.55 1.71,3.01 3.78,5.74 6.24,8.18 2.45,2.44 5.19,4.51 8.2,6.2l294.15 169.66 -102.1 59.21c-1.14,0.39 -2.28,0.39 -3.42,0l-244.43 -141.19c-3.22,-1.86 -6.39,-3.8 -9.51,-5.82 -3.12,-2.02 -6.2,-4.11 -9.22,-6.28 -3.02,-2.17 -5.99,-4.41 -8.9,-6.72 -2.91,-2.31 -5.77,-4.7 -8.56,-7.15 -2.8,-2.45 -5.53,-4.97 -8.2,-7.56 -2.67,-2.59 -5.28,-5.24 -7.82,-7.95 -2.54,-2.71 -5.02,-5.49 -7.42,-8.33 -2.41,-2.84 -4.74,-5.73 -7,-8.68 -2.26,-2.95 -4.45,-5.95 -6.57,-9.01 -2.12,-3.06 -4.16,-6.17 -6.12,-9.32 -1.97,-3.16 -3.85,-6.36 -5.66,-9.61 -1.81,-3.25 -3.53,-6.54 -5.18,-9.88 -1.65,-3.33 -3.21,-6.71 -4.69,-10.12 -1.48,-3.41 -2.88,-6.86 -4.19,-10.34 -1.31,-3.48 -2.54,-6.99 -3.68,-10.53 -1.14,-3.54 -2.19,-7.11 -3.16,-10.7 -0.97,-3.59 -1.84,-7.2 -2.63,-10.84 -0.79,-3.63 -1.49,-7.29 -2.1,-10.95 -0.61,-3.67 -1.13,-7.35 -1.56,-11.04 -0.43,-3.69 -0.77,-7.4 -1.02,-11.11 -0.25,-3.71 -0.41,-7.43 -0.47,-11.14 -0.07,-3.72 -0.04,-7.44 0.07,-11.15 0.12,-3.72 0.32,-7.43 0.62,-11.14 0.3,-3.71 0.69,-7.4 1.16,-11.09 0.48,-3.69 1.05,-7.36 1.71,-11.02 0.66,-3.66 1.41,-7.3 2.24,-10.92 0.84,-3.62 1.76,-7.22 2.78,-10.8 1.01,-3.58 2.11,-7.13 3.3,-10.65 1.19,-3.52 2.46,-7.02 3.82,-10.48 1.36,-3.46 2.8,-6.89 4.33,-10.28 1.53,-3.39 3.14,-6.74 4.83,-10.06 1.69,-3.31 3.46,-6.58 5.31,-9.81l0 1.14zm839.95 195.09l-295.29 -171.56 102.1 -58.83c0.52,-0.35 1.08,-0.53 1.71,-0.53 0.62,0 1.19,0.18 1.71,0.53l244.43 141.19c4.64,2.69 9.17,5.53 13.61,8.54 4.44,3.01 8.76,6.16 12.97,9.47 4.21,3.31 8.3,6.77 12.27,10.37 3.97,3.6 7.81,7.33 11.51,11.2 3.71,3.87 7.27,7.87 10.69,11.99 3.42,4.12 6.7,8.36 9.82,12.71 3.12,4.35 6.09,8.81 8.9,13.37 2.81,4.56 5.45,9.22 7.94,13.97 2.48,4.75 4.79,9.58 6.93,14.49 2.14,4.91 4.1,9.89 5.89,14.95 1.79,5.05 3.4,10.16 4.82,15.32 1.43,5.16 2.67,10.37 3.73,15.63 1.06,5.25 1.93,10.54 2.62,15.85 0.69,5.31 1.19,10.65 1.5,15.99 0.31,5.35 0.43,10.7 0.37,16.06 -0.07,5.36 -0.32,10.71 -0.77,16.05 -0.44,5.34 -1.08,10.66 -1.9,15.95 -0.82,5.29 -1.83,10.55 -3.02,15.78 -1.19,5.22 -2.56,10.4 -4.12,15.53 -1.56,5.13 -3.29,10.19 -5.21,15.2 -1.91,5 -4,9.94 -6.26,14.79 -2.26,4.86 -4.69,9.63 -7.29,14.31 -2.6,4.69 -5.36,9.27 -8.28,13.77 -2.92,4.49 -6,8.87 -9.23,13.15 -3.23,4.27 -6.61,8.43 -10.14,12.46 -3.53,4.04 -7.19,7.94 -10.99,11.72 -3.8,3.78 -7.73,7.41 -11.79,10.91 -4.06,3.5 -8.23,6.85 -12.53,10.05 -4.29,3.2 -8.7,6.25 -13.21,9.15 -4.51,2.89 -9.12,5.62 -13.82,8.19 -4.7,2.57 -9.49,4.97 -14.36,7.2 -4.87,2.23 -9.82,4.29 -14.83,6.17l0 -287.32c-0.11,-3.46 -0.66,-6.85 -1.64,-10.16 -0.99,-3.32 -2.38,-6.46 -4.17,-9.41 -1.8,-2.96 -3.94,-5.64 -6.42,-8.05 -2.49,-2.41 -5.24,-4.46 -8.26,-6.15zm101.72 -151.82l-7.21 -4.55 -241.39 -140.43c-2.99,-1.85 -6.18,-3.25 -9.57,-4.21 -3.39,-0.96 -6.84,-1.44 -10.36,-1.44 -3.52,0 -6.97,0.48 -10.36,1.44 -3.38,0.96 -6.58,2.36 -9.57,4.21l-295.29 170.42 0 -119.18c-0.3,-0.53 -0.46,-1.1 -0.46,-1.71 0,-0.61 0.15,-1.18 0.46,-1.71l244.81 -140.81c4.65,-2.68 9.4,-5.2 14.23,-7.54 4.83,-2.35 9.74,-4.52 14.72,-6.52 4.98,-2 10.03,-3.82 15.15,-5.46 5.11,-1.64 10.28,-3.1 15.5,-4.38 5.22,-1.28 10.47,-2.37 15.77,-3.27 5.29,-0.9 10.61,-1.62 15.96,-2.15 5.34,-0.53 10.7,-0.87 16.07,-1.02 5.37,-0.15 10.74,-0.11 16.1,0.12 5.37,0.23 10.72,0.65 16.05,1.26 5.34,0.61 10.64,1.41 15.92,2.39 5.28,0.98 10.52,2.15 15.71,3.51 5.2,1.36 10.34,2.89 15.43,4.61 5.09,1.72 10.11,3.62 15.06,5.69 4.95,2.07 9.83,4.32 14.62,6.74 4.8,2.42 9.5,5 14.11,7.76 4.61,2.75 9.12,5.66 13.53,8.73 4.41,3.07 8.7,6.29 12.88,9.67 4.18,3.37 8.23,6.89 12.16,10.55 3.93,3.66 7.72,7.46 11.38,11.39 3.66,3.93 7.18,7.98 10.55,12.16 3.37,4.18 6.6,8.47 9.67,12.88 3.07,4.41 5.98,8.92 8.73,13.53 2.75,4.61 5.34,9.32 7.75,14.11 2.42,4.8 4.66,9.67 6.74,14.62 2.07,4.95 3.97,9.98 5.69,15.06 1.72,5.09 3.25,10.23 4.61,15.43 1.35,5.2 2.52,10.43 3.51,15.71 0.98,5.28 1.78,10.59 2.39,15.92 0.61,5.34 1.03,10.69 1.26,16.05 0.23,5.37 0.27,10.73 0.12,16.1 -0.15,5.37 -0.49,10.72 -1.02,16.07 -0.53,5.34 -1.25,10.66 -2.15,15.96l0.76 2.28zm-639.54 207.99l-102.48 -58.83c-0.99,-0.79 -1.63,-1.8 -1.9,-3.04l0 -281.63c0,-5.38 0.19,-10.74 0.57,-16.11 0.38,-5.36 0.95,-10.7 1.71,-16.03 0.76,-5.32 1.7,-10.61 2.84,-15.87 1.13,-5.26 2.45,-10.46 3.95,-15.63 1.5,-5.16 3.19,-10.26 5.05,-15.31 1.86,-5.04 3.9,-10.01 6.12,-14.91 2.22,-4.9 4.6,-9.71 7.16,-14.44 2.56,-4.73 5.28,-9.36 8.16,-13.9 2.88,-4.54 5.93,-8.97 9.12,-13.29 3.2,-4.32 6.55,-8.52 10.04,-12.61 3.5,-4.08 7.13,-8.04 10.91,-11.87 3.78,-3.83 7.68,-7.51 11.72,-11.06 4.04,-3.55 8.19,-6.95 12.47,-10.21 4.28,-3.26 8.67,-6.36 13.16,-9.3 4.5,-2.94 9.09,-5.73 13.79,-8.35 4.69,-2.62 9.48,-5.07 14.34,-7.35 4.87,-2.28 9.81,-4.39 14.83,-6.32 5.02,-1.93 10.1,-3.68 15.24,-5.25 5.14,-1.57 10.33,-2.96 15.57,-4.16 5.24,-1.2 10.51,-2.22 15.83,-3.05 5.31,-0.83 10.65,-1.47 16,-1.92 5.36,-0.45 10.72,-0.71 16.1,-0.79 5.37,-0.07 10.75,0.05 16.11,0.35 5.37,0.31 10.72,0.81 16.05,1.49 5.33,0.69 10.63,1.56 15.9,2.63 5.27,1.06 10.5,2.31 15.68,3.74 5.18,1.43 10.31,3.05 15.37,4.84 5.07,1.8 10.06,3.77 14.99,5.92 4.93,2.15 9.77,4.47 14.54,6.96 4.76,2.49 9.43,5.15 14.01,7.97 4.58,2.82 9.04,5.8 13.41,8.94 4.36,3.14 8.61,6.43 12.74,9.87l-6.45 4.17 -242.53 139.67c-3.12,1.66 -5.95,3.71 -8.49,6.16 -2.54,2.45 -4.7,5.2 -6.48,8.25 -1.78,3.05 -3.1,6.29 -3.98,9.71 -0.87,3.42 -1.26,6.9 -1.17,10.42l0 340.08zm55.41 -119.56l131.33 -75.91 131.7 75.91 0 151.82 -131.7 75.91 -131.7 -75.91 0.38 -151.82z"/>
  </g>
 </g>
</svg>
